<?xml version="1.0" encoding="iso-8859-1"?>
<!-- Generator: Adobe Illustrator 19.0.0, SVG Export Plug-In . SVG Version: 6.00 Build 0)  -->
<svg version="1.1" id="Capa_1" xmlns="http://www.w3.org/2000/svg" xmlns:xlink="http://www.w3.org/1999/xlink" x="0px" y="0px"
	 viewBox="0 0 504.446 504.446" style="enable-background:new 0 0 504.446 504.446;" xml:space="preserve">
<g>
	<g>
		<g>
			<path d="M252.223,0C127.12,0.139,25.739,101.52,25.6,226.623v51.2c0,125.16,101.463,226.623,226.623,226.623
				s226.623-101.463,226.623-226.623v-51.2C478.707,101.52,377.326,0.139,252.223,0z M252.223,486.82
				c-97.807,0.003-182.663-67.523-204.624-162.833c37.54,78.977,117.179,129.299,204.624,129.299s167.083-50.323,204.624-129.299
				C434.886,419.297,350.03,486.823,252.223,486.82z M252.223,436.459c-115.889,0-209.836-93.947-209.836-209.836
				S136.334,16.787,252.223,16.787s209.836,93.947,209.836,209.836C461.929,342.458,368.059,436.329,252.223,436.459z"/>
			<path d="M252.223,50.361c-97.347,0-176.262,78.915-176.262,176.262s78.915,176.262,176.262,176.262
				s176.262-78.915,176.262-176.262C428.374,129.322,349.524,50.472,252.223,50.361z M252.223,386.098
				c-88.076,0-159.475-71.4-159.475-159.475s71.4-159.475,159.475-159.475s159.475,71.4,159.475,159.475
				C411.601,314.659,340.259,386.001,252.223,386.098z"/>
			<path d="M346.75,181.995l-54.809-7.638l-24.61-47.717c-2.93-5.611-8.736-9.129-15.066-9.129c-6.33,0-12.136,3.518-15.066,9.129
				l-24.761,47.759l-54.692,7.596c-6.47,0.855-11.858,5.382-13.816,11.608c-1.975,6.155-0.189,12.896,4.574,17.265l39.239,36.478
				l-9.384,51.855c-1.131,6.244,1.385,12.587,6.488,16.359c5.16,3.873,12.073,4.479,17.828,1.561l49.622-24.811l49.446,24.811
				c5.752,2.916,12.662,2.311,17.819-1.561c5.104-3.774,7.62-10.121,6.488-16.367l-9.308-51.779l39.231-36.545
				c4.77-4.365,6.561-11.109,4.583-17.265C358.601,187.38,353.217,182.853,346.75,181.995z M305.311,235.117
				c-4.19,3.859-6.113,9.595-5.095,15.201l9.065,51.804l-49.412-24.803c-4.811-2.417-10.482-2.417-15.293,0l-49.656,24.845
				l9.308-51.846c1.017-5.599-0.898-11.33-5.078-15.192l-39.139-36.495l54.683-7.554c5.446-0.749,10.19-4.094,12.724-8.973
				l24.929-47.809v0.05L277,182.062c2.537,4.883,7.289,8.229,12.741,8.973l54.801,7.554L305.311,235.117z"/>
		</g>
	</g>
</g>
<g>
</g>
<g>
</g>
<g>
</g>
<g>
</g>
<g>
</g>
<g>
</g>
<g>
</g>
<g>
</g>
<g>
</g>
<g>
</g>
<g>
</g>
<g>
</g>
<g>
</g>
<g>
</g>
<g>
</g>
</svg>
